<svg xmlns="http://www.w3.org/2000/svg" viewBox="0 0 160 42" fill="none">
    <path d="M56.3462 14.7422L26.9231 42V27.2578L56.3462 0V14.7422Z" class="symbol"
        fill="currentColor"></path>
    <path d="M0 16.5398L11.0789 27.1327H26.9231V16.5398H0Z" class="symbol" fill="currentColor"></path>
    <path
        d="M69.1139 13.1947L73.4391 24.4637C73.4391 24.4767 73.4526 24.5065 73.4797 24.553C73.5067 24.5995 73.5318 24.633 73.5531 24.6535C73.5743 24.674 73.6013 24.6963 73.6361 24.7242C73.6708 24.7503 73.7094 24.7633 73.75 24.7633C73.7906 24.7633 73.8292 24.7503 73.8639 24.7242C73.8987 24.6982 73.9257 24.674 73.947 24.6535C73.9682 24.633 73.9914 24.5995 74.0203 24.553C74.0474 24.5065 74.0609 24.4767 74.0609 24.4637L78.3861 13.1947H81.3462L76.0902 25.8018C75.677 26.8124 74.897 27.3186 73.7519 27.3186C72.6069 27.3186 71.8268 26.8142 71.4136 25.8018L66.1538 13.1947H69.1139Z"
        fill="currentColor"></path>
    <path d="M85 27.1327H82.3077V13.1947H85V27.1327Z" fill="currentColor"></path>
    <path
        d="M99.4231 27.1327H93.3199C92.1071 27.1327 91.0834 26.9637 90.2489 26.6255C89.4124 26.2874 88.7728 25.7895 88.3263 25.1318C87.8797 24.4741 87.5678 23.7476 87.3864 22.9506C87.2051 22.1535 87.1154 21.2246 87.1154 20.1637C87.1154 19.1028 87.2051 18.172 87.3864 17.3769C87.5678 16.5798 87.8817 15.8534 88.3263 15.1957C88.7728 14.538 89.4124 14.04 90.2489 13.7019C91.0854 13.3638 92.109 13.1947 93.3199 13.1947H99.193V15.2848H94.6166C92.8325 15.2848 91.6099 15.6267 90.9489 16.3104C90.2878 16.9941 89.9564 18.2779 89.9564 20.1637C89.9564 22.0495 90.2878 23.3333 90.9489 24.017C91.6099 24.7007 92.8325 25.0426 94.6166 25.0426H99.4231V27.1327Z"
        fill="currentColor"></path>
    <path
        d="M108.759 27.1327H106.029V15.2848H100.385V13.1947H114.423V15.2848H108.757V27.1327H108.759Z"
        fill="currentColor"></path>
    <path
        d="M122.105 13.0089C123.524 13.0089 124.684 13.1151 125.589 13.3277C126.492 13.5403 127.256 13.9207 127.883 14.467C128.508 15.0134 128.954 15.7425 129.218 16.6562C129.483 17.5699 129.615 18.7391 129.615 20.1637C129.615 21.5884 129.483 22.7594 129.218 23.6712C128.954 24.5831 128.51 25.314 127.883 25.8604C127.258 26.4067 126.492 26.7871 125.589 26.9997C124.684 27.2123 123.524 27.3186 122.105 27.3186C120.686 27.3186 119.545 27.2123 118.642 26.9997C117.737 26.7871 116.974 26.4067 116.348 25.8604C115.723 25.314 115.277 24.5849 115.012 23.6712C114.748 22.7594 114.615 21.5902 114.615 20.1637C114.615 18.7372 114.748 17.5699 115.012 16.6562C115.277 15.7444 115.721 15.0153 116.348 14.467C116.974 13.9207 117.737 13.5403 118.642 13.3277C119.545 13.1151 120.699 13.0089 122.105 13.0089ZM118.422 16.1471C117.776 16.8408 117.453 18.1797 117.453 20.1637C117.453 22.1478 117.776 23.4885 118.422 24.1803C119.068 24.874 120.297 25.2189 122.105 25.2189C123.913 25.2189 125.143 24.8721 125.797 24.1803C126.451 23.4885 126.778 22.1496 126.778 20.1637C126.778 18.1778 126.451 16.8389 125.797 16.1471C125.143 15.4553 123.913 15.1085 122.105 15.1085C120.297 15.1085 119.07 15.4553 118.422 16.1471Z"
        fill="currentColor"></path>
    <path
        d="M134.258 27.129H131.538V15.2843C131.538 13.8912 132.238 13.1947 133.639 13.1947H140.911C142.203 13.1947 143.126 13.5625 143.683 14.2999C144.239 15.0372 144.517 16.135 144.517 17.5949C144.517 20.7005 143.404 22.2533 141.18 22.2533H139.739V22.3536L144.808 27.1309H141.305L136.65 22.6118C136.196 22.1474 135.969 21.7555 135.969 21.4379V21.1203C135.969 20.8287 136.075 20.5965 136.288 20.4238C136.502 20.251 136.8 20.1656 137.184 20.1656H139.987C140.686 20.1656 141.152 19.9594 141.376 19.5489C141.603 19.1384 141.717 18.4865 141.717 17.5986C141.717 16.7108 141.582 16.1517 141.315 15.8062C141.048 15.4607 140.502 15.288 139.677 15.288H135.289C134.877 15.288 134.603 15.3549 134.464 15.4867C134.328 15.6186 134.258 15.8842 134.258 16.2836V27.1327V27.129Z"
        fill="currentColor"></path>
    <path
        d="M152.499 20.5009L157.058 13.1947H160L153.868 22.8713V27.1327H151.132V22.8713L145 13.1947H147.942L152.501 20.5009H152.499Z"
        fill="currentColor"></path>
    <path
        d="M100.87 39.3982H98.4256C97.2415 39.3982 96.4221 39.1053 95.9674 38.5194C95.5222 37.9244 95.2996 37.0044 95.2996 35.7594C95.2996 34.5419 95.5269 33.631 95.9816 33.0268C96.4363 32.4227 97.251 32.1206 98.4256 32.1206H100.173C100.836 32.1206 101.32 32.203 101.623 32.3677C101.926 32.5325 102.077 32.8712 102.077 33.3839V38.6979C102.077 39.7415 101.841 40.5105 101.367 41.0048C100.903 41.5083 100.102 41.76 98.9655 41.76H95.8253V40.8263H98.9655C99.496 40.8263 99.9318 40.7073 100.273 40.4693C100.614 40.2404 100.813 39.8834 100.87 39.3982ZM100.884 38.4645V33.5486C100.884 33.2191 100.704 33.0543 100.344 33.0543H98.6529C97.8098 33.0543 97.2462 33.2694 96.962 33.6997C96.6873 34.1299 96.55 34.8165 96.55 35.7594C96.55 36.7298 96.6873 37.4255 96.962 37.8466C97.2367 38.2585 97.8004 38.4645 98.6529 38.4645H100.884Z"
        fill="currentColor"></path>
    <path
        d="M103.492 39.3982V34.7433C103.492 33.8461 103.72 33.187 104.174 32.7659C104.629 32.3357 105.325 32.1206 106.263 32.1206H107.087V33.0543H106.476C105.832 33.0543 105.373 33.2145 105.098 33.5349C104.823 33.8553 104.686 34.3542 104.686 35.0316V39.3982H103.492Z"
        fill="currentColor"></path>
    <path
        d="M108.17 32.8758C108.776 32.3174 109.766 32.0382 111.14 32.0382C112.513 32.0382 113.498 32.3174 114.095 32.8758C114.701 33.4251 115.005 34.3771 115.005 35.7319C115.005 37.0959 114.701 38.0617 114.095 38.6293C113.498 39.1968 112.513 39.4806 111.14 39.4806C109.766 39.4806 108.776 39.1968 108.17 38.6293C107.573 38.0617 107.275 37.0959 107.275 35.7319C107.275 34.3771 107.573 33.4251 108.17 32.8758ZM108.525 35.7319C108.525 36.7664 108.719 37.4941 109.108 37.9152C109.506 38.3363 110.183 38.5469 111.14 38.5469C112.096 38.5469 112.769 38.3363 113.157 37.9152C113.555 37.4941 113.754 36.7664 113.754 35.7319C113.754 34.7067 113.56 33.9926 113.172 33.5898C112.783 33.1779 112.106 32.9719 111.14 32.9719C110.173 32.9719 109.496 33.1779 109.108 33.5898C108.719 33.9926 108.525 34.7067 108.525 35.7319Z"
        fill="currentColor"></path>
    <path
        d="M122.668 32.1206V38.2036C122.668 39 122.285 39.3982 121.517 39.3982H118.732C117.037 39.3982 116.189 38.611 116.189 37.0364V32.1206H117.383V36.8304C117.383 37.9198 117.885 38.4645 118.889 38.4645H121.034C121.186 38.4645 121.295 38.4325 121.361 38.3684C121.437 38.2951 121.475 38.1716 121.475 37.9976V32.1206H122.668Z"
        fill="currentColor"></path>
    <path
        d="M125.278 39.3982V41.7326H124.085V33.2603C124.085 32.5005 124.497 32.1206 125.321 32.1206H127.58C128.726 32.1206 129.527 32.4227 129.981 33.0268C130.436 33.6219 130.663 34.5236 130.663 35.7319C130.663 36.9495 130.436 37.8649 129.981 38.4782C129.527 39.0916 128.726 39.3982 127.58 39.3982H125.278ZM125.278 33.48V38.4645H127.367C127.717 38.4645 128.016 38.4187 128.262 38.3272C128.518 38.2356 128.717 38.1166 128.859 37.9702C129.01 37.8145 129.129 37.6131 129.214 37.366C129.299 37.1188 129.351 36.8716 129.37 36.6245C129.399 36.3773 129.413 36.0798 129.413 35.7319C129.413 35.2925 129.389 34.9309 129.342 34.6472C129.295 34.3542 129.205 34.0796 129.072 33.8233C128.939 33.5578 128.731 33.3656 128.447 33.2465C128.163 33.1184 127.803 33.0543 127.367 33.0543H125.719C125.425 33.0543 125.278 33.1962 125.278 33.48Z"
        fill="currentColor"></path>
</svg>
